<svg width="35" height="66" viewBox="0 0 35 66" fill="none" xmlns="http://www.w3.org/2000/svg">
<path d="M33.2794 63.9702V13.7288C33.2792 13.1904 33.1097 12.6657 32.795 12.2288C32.4802 11.792 32.0361 11.4651 31.5255 11.2945L5.88341 2.74716C5.49785 2.61795 5.08706 2.58241 4.68504 2.6435C4.28302 2.70458 3.90132 2.86052 3.57153 3.09842C3.24175 3.33632 2.97336 3.64933 2.78858 4.01156C2.60379 4.37379 2.50793 4.77481 2.50892 5.18145V63.9702" stroke="#DBC9AA" stroke-width="3.39981" stroke-linecap="round" stroke-linejoin="round"/>
<path d="M23.0198 47.7786V50.3428" stroke="#DBC9AA" stroke-width="3.39981" stroke-linecap="round" stroke-linejoin="round"/>
<path d="M23.0198 34.9576V37.5218" stroke="#DBC9AA" stroke-width="3.39981" stroke-linecap="round" stroke-linejoin="round"/>
<path d="M23.0198 22.1368V24.701" stroke="#DBC9AA" stroke-width="3.39981" stroke-linecap="round" stroke-linejoin="round"/>
<path d="M12.7689 47.7786V50.3428" stroke="#DBC9AA" stroke-width="3.39981" stroke-linecap="round" stroke-linejoin="round"/>
<path d="M12.7689 34.9576V37.5218" stroke="#DBC9AA" stroke-width="3.39981" stroke-linecap="round" stroke-linejoin="round"/>
<path d="M12.7689 22.1368V24.701" stroke="#DBC9AA" stroke-width="3.39981" stroke-linecap="round" stroke-linejoin="round"/>
</svg>
