<svg width="36" height="60" viewBox="0 0 36 60" fill="none" xmlns="http://www.w3.org/2000/svg">
<path d="M28.6885 2.66907H7.07008C4.41685 2.66907 2.26599 4.81993 2.26599 7.47315V53.112C2.26599 55.7652 4.41685 57.916 7.07008 57.916H28.6885C31.3417 57.916 33.4925 55.7652 33.4925 53.112V7.47315C33.4925 4.81993 31.3417 2.66907 28.6885 2.66907Z" stroke="#DBC9AA" stroke-width="3.39981" stroke-linecap="round" stroke-linejoin="round"/>
<path d="M25.7472 2.66925V5.81669C25.7472 6.65144 25.4156 7.45201 24.8253 8.04227C24.2351 8.63253 23.4345 8.96413 22.5998 8.96413H13.1574C12.3227 8.96413 11.5221 8.63253 10.9319 8.04227C10.3416 7.45201 10.01 6.65144 10.01 5.81669V2.66925" stroke="#DBC9AA" stroke-width="3.39981" stroke-linecap="round" stroke-linejoin="round"/>
</svg>
