<svg width="42" height="41" viewBox="0 0 42 41" fill="none" xmlns="http://www.w3.org/2000/svg">
<path d="M23.7268 3.31615L23.7264 3.31539C23.1744 2.19913 22.0465 1.75384 21.1048 1.75384C20.1629 1.75384 19.0376 2.19873 18.482 3.30918L18.482 3.30917L18.4782 3.31679L14.0836 12.2268L4.25343 13.6551L4.25314 13.6551C3.16333 13.8137 2.23523 14.5751 1.88838 15.6464L1.88763 15.6487C1.54934 16.6995 1.82529 17.8676 2.63429 18.6469L9.74591 25.5806L8.06655 35.3691L8.06534 35.3764C7.88496 36.4602 8.32225 37.5787 9.23568 38.2381C10.1284 38.8826 11.3203 38.9827 12.3146 38.4528C12.3168 38.4516 12.319 38.4505 12.3211 38.4493L21.1057 33.8352L29.8921 38.4535C29.8929 38.4539 29.8937 38.4543 29.8945 38.4548C30.3402 38.6898 30.8118 38.7892 31.2614 38.7892C31.8632 38.7892 32.4583 38.6062 32.9674 38.2438L32.976 38.2377L32.9845 38.2314C33.8844 37.5714 34.3272 36.4666 34.1458 35.3764L34.1445 35.3691L32.4652 25.5806L39.5794 18.6443C40.3857 17.86 40.6557 16.7007 40.3188 15.6522C39.9799 14.5837 39.0504 13.8139 37.9577 13.6551L37.7445 15.1219L37.9576 13.6551L28.127 12.2267L23.7268 3.31615Z" fill="#EFF0F7" stroke="white" stroke-width="2.96448"/>
</svg>
